<svg width="320" height="320" viewBox="0 0 320 320" fill="none" xmlns="http://www.w3.org/2000/svg">
  <defs>
    <linearGradient id="g1" x1="26" y1="18" x2="298" y2="292" gradientUnits="userSpaceOnUse">
      <stop stop-color="#0EA67A"/>
      <stop offset="1" stop-color="#0A7F66"/>
    </linearGradient>
    <linearGradient id="g2" x1="86" y1="84" x2="238" y2="238" gradientUnits="userSpaceOnUse">
      <stop stop-color="#FFFDF8"/>
      <stop offset="1" stop-color="#F5FBF8"/>
    </linearGradient>
  </defs>
  <rect x="20" y="20" width="280" height="280" rx="64" fill="url(#g1)"/>
  <rect x="78" y="78" width="164" height="164" rx="40" fill="url(#g2)"/>
  <path d="M116 146C116 129.431 129.431 116 146 116H174C190.569 116 204 129.431 204 146V178C204 194.569 190.569 208 174 208H164L146 224V208C129.431 208 116 194.569 116 178V146Z" fill="#0A7F66"/>
  <circle cx="142" cy="161" r="9" fill="#FFFDF8"/>
  <circle cx="160" cy="161" r="9" fill="#FFFDF8"/>
  <circle cx="178" cy="161" r="9" fill="#FFFDF8"/>
</svg>
